<svg viewBox="0 0 49 48" xmlns="http://www.w3.org/2000/svg">

  <symbol id="bag">
<path d="M43.5886 12.5253H38.519V7.45567C38.519 6.55931 38.1629 5.69966 37.5291 5.06583C36.8952 4.43201 36.0356 4.07593 35.1392 4.07593H14.8608C13.9644 4.07593 13.1047 4.43201 12.4709 5.06583C11.8371 5.69966 11.481 6.55931 11.481 7.45567V12.5253H6.41139C5.06684 12.5253 3.77736 13.0594 2.82662 14.0102C1.87589 14.9609 1.34177 16.2504 1.34177 17.5949V41.2531C1.34177 42.1495 1.69785 43.0092 2.33167 43.643C2.9655 44.2768 3.82515 44.6329 4.72151 44.6329H45.2785C46.1748 44.6329 47.0345 44.2768 47.6683 43.643C48.3021 43.0092 48.6582 42.1495 48.6582 41.2531V17.5949C48.6582 16.2504 48.1241 14.9609 47.1734 14.0102C46.2226 13.0594 44.9331 12.5253 43.5886 12.5253ZM14.8608 7.45567H35.1392V12.5253H14.8608V7.45567ZM45.2785 41.2531H4.72151V26.0443H18.2405V34.4936H31.7595V26.0443H45.2785V41.2531ZM21.6202 26.0443H28.3797V31.1139H21.6202V26.0443ZM4.72151 22.6645V17.5949C4.72151 17.1467 4.89955 16.7169 5.21647 16.4C5.53338 16.0831 5.9632 15.905 6.41139 15.905H43.5886C44.0368 15.905 44.4666 16.0831 44.7835 16.4C45.1004 16.7169 45.2785 17.1467 45.2785 17.5949V22.6645H4.72151Z" fill="#00A0C1"/>
  </symbol>

  <symbol id="award">
    <path d="M9.06414 33.9949C8.25307 33.1802 8.67587 33.4099 6.71961 32.8839C5.83201 32.6449 5.05174 32.1855 4.34614 31.6352L0.111605 42.0639C-0.298129 43.0736 0.467205 44.1705 1.55174 44.1292L6.46947 43.9408L9.85187 47.5296C10.5985 48.3208 11.9089 48.0742 12.3187 47.0646L17.1767 35.1002C16.1649 35.6664 15.0421 35.9983 13.8811 35.9983C12.0611 35.9983 10.3512 35.2867 9.06414 33.9949ZM35.7276 42.0639L31.4931 31.6352C30.7875 32.1864 30.0072 32.6449 29.1196 32.8839C27.1531 33.4127 27.5843 33.1821 26.7751 33.9949C25.488 35.2867 23.7772 35.9983 21.9572 35.9983C20.7961 35.9983 19.6733 35.6655 18.6616 35.1002L23.5196 47.0646C23.9293 48.0742 25.2407 48.3208 25.9864 47.5296L29.3697 43.9408L34.2875 44.1292C35.372 44.1705 36.1373 43.0727 35.7276 42.0639ZM24.5463 31.8733C25.9724 30.4155 26.1357 30.5411 28.1667 29.9852C29.4631 29.6299 30.4767 28.5939 30.8239 27.2683C31.522 24.6058 31.3409 24.9274 33.2459 22.9792C34.1951 22.0089 34.5656 20.5942 34.2184 19.2686C33.5212 16.608 33.5203 16.9792 34.2184 14.3158C34.5656 12.9902 34.1951 11.5755 33.2459 10.6052C31.3409 8.65706 31.522 8.97769 30.8239 6.31613C30.4767 4.9905 29.4631 3.95456 28.1667 3.59925C25.5645 2.88581 25.8781 3.07238 23.9713 1.12331C23.0221 0.153002 21.638 -0.226685 20.3416 0.128627C17.7404 0.841127 18.1035 0.842064 15.4976 0.128627C14.2012 -0.226685 12.8171 0.152065 11.8679 1.12331C9.96294 3.07144 10.2765 2.88581 7.67347 3.59925C6.37707 3.95456 5.36347 4.9905 5.01627 6.31613C4.31907 8.97769 4.49921 8.65706 2.59427 10.6052C1.64507 11.5755 1.2736 12.9902 1.62174 14.3158C2.31894 16.9746 2.31987 16.6033 1.62174 19.2677C1.27454 20.5933 1.64507 22.008 2.59427 22.9792C4.49921 24.9274 4.31814 24.6058 5.01627 27.2683C5.36347 28.5939 6.37707 29.6299 7.67347 29.9852C9.76227 30.5571 9.91814 30.4671 11.2929 31.8733C12.5277 33.1361 14.4513 33.3621 15.9353 32.4189C16.5288 32.0405 17.2172 31.8396 17.9201 31.8396C18.623 31.8396 19.3114 32.0405 19.9048 32.4189C21.3879 33.3621 23.3115 33.1361 24.5463 31.8733ZM9.11454 16.4946C9.11454 11.523 13.0569 7.49269 17.9196 7.49269C22.7823 7.49269 26.7247 11.523 26.7247 16.4946C26.7247 21.4661 22.7823 25.4964 17.9196 25.4964C13.0569 25.4964 9.11454 21.4661 9.11454 16.4946Z" fill="#00A0C1"/>
  </symbol>

  <symbol id="line">
    <path d="M43.1502 12.2822C42.5747 12.2864 42.0047 12.3962 41.4674 12.6064L35.7271 7.82167C35.8684 7.30005 35.9689 6.75894 35.9689 6.18858C35.9689 2.81028 33.3022 0.0949707 29.9844 0.0949707C26.6667 0.0949707 24 2.81028 24 6.18858C24 7.15381 24.2394 8.05323 24.6272 8.86246L17.6636 17.2424C17.3849 17.1893 17.1022 17.1607 16.8186 17.1571C16.3902 17.1571 15.9856 17.2302 15.593 17.3374L9.45776 11.0903C9.56548 10.693 9.63729 10.281 9.63729 9.84475C9.63729 7.14406 7.50204 4.96986 4.84973 4.96986C2.19742 4.96986 0.0621643 7.14406 0.0621643 9.84475C0.0621643 12.5454 2.19742 14.7196 4.84973 14.7196C5.27822 14.7196 5.68277 14.6465 6.07535 14.5393L12.2106 20.7864C12.0955 21.1914 12.0351 21.6104 12.0311 22.032C12.0311 24.7327 14.1663 26.9069 16.8186 26.9069C19.471 26.9069 21.6062 24.7327 21.6062 22.032C21.6062 21.4543 21.4913 20.9107 21.3118 20.3964L28.2849 12.0068C28.8282 12.1676 29.3908 12.2822 29.9844 12.2822C30.9291 12.2769 31.8589 12.0421 32.6966 11.5973L38.4393 16.382C38.3942 16.638 38.3686 16.8971 38.3627 17.1571C38.3627 19.8578 40.4979 22.032 43.1502 22.032C45.8026 22.032 47.9378 19.8578 47.9378 17.1571C47.9378 14.4564 45.8026 12.2822 43.1502 12.2822Z" fill="#00A0C1"/>
  </symbol>
    <symbol id="user">
    <path d="M23.8406 20.8022C28.1448 20.8022 31.4925 17.3069 31.4925 13.0171C31.4925 8.72735 27.9854 5.39087 23.6812 5.39087C19.377 5.39087 16.0293 8.88623 16.0293 13.0171C16.0293 17.3069 19.5364 20.8022 23.8406 20.8022ZM23.6812 8.56847C23.8406 8.56847 23.8406 8.56847 23.6812 8.56847C26.2318 8.56847 28.3042 10.6339 28.3042 13.176C28.3042 15.7181 26.2318 17.6246 23.6812 17.6246C21.1305 17.6246 19.2176 15.5592 19.2176 13.176C19.2176 10.6339 21.2899 8.56847 23.6812 8.56847Z" fill="#00A0C1"/>
<path d="M47.4339 19.8487C44.405 17.1477 40.4197 15.7178 36.2749 15.8767H34.9996C34.6808 17.1477 34.2025 18.2599 33.5648 19.2132C34.5213 19.0543 35.3184 19.0543 36.2749 19.0543C39.3038 18.8954 42.3327 19.8487 44.7239 21.5964V33.0357H47.9122V20.3253L47.4339 19.8487Z" fill="#00A0C1"/>
<path d="M32.6084 5.70814C33.4055 3.80158 35.6373 2.8483 37.7097 3.6427C39.6226 4.4371 40.5791 6.66141 39.782 8.72685C39.1444 10.1568 37.7097 11.1101 36.2749 11.1101C35.9561 11.1101 35.4779 11.1101 35.159 10.9512C35.3184 11.7456 35.3184 12.54 35.3184 13.1755V14.1288C35.6373 14.1288 35.9561 14.2876 36.2749 14.2876C40.2603 14.2876 43.4486 11.1101 43.4486 7.29693C43.4486 3.32494 40.2603 0.147339 36.4343 0.147339C33.8837 0.147339 31.6519 1.41838 30.3766 3.6427C31.1737 4.11934 31.9707 4.75486 32.6084 5.70814Z" fill="#00A0C1"/>
<path d="M14.4351 19.3721C13.7975 18.4189 13.3192 17.3067 13.0004 16.0357H11.7251C7.58031 15.8768 3.59495 17.3067 0.566073 19.8488L0.0878296 20.3254V33.0358H3.27612V21.5965C5.82675 19.8488 8.69621 18.8955 11.7251 19.0544C12.6816 19.0544 13.6381 19.2133 14.4351 19.3721Z" fill="#00A0C1"/>
<path d="M11.7251 14.1294C12.044 14.1294 12.3628 14.1294 12.6816 13.9705V13.0172C12.6816 12.2228 12.6816 11.4284 12.841 10.7929C12.5222 10.9518 12.044 10.9518 11.7251 10.9518C9.65273 10.9518 7.89917 9.20412 7.89917 7.13868C7.89917 5.07324 9.65273 3.32556 11.7251 3.32556C13.3193 3.32556 14.754 4.27884 15.3917 5.70876C16.0293 4.91436 16.9858 4.11996 17.7829 3.48444C15.7105 0.147963 11.4063 -0.964197 8.05859 1.10124C4.71088 3.16668 3.59498 7.45644 5.66737 10.7929C6.94269 12.8584 9.17449 14.1294 11.7251 14.1294Z" fill="#00A0C1"/>
<path d="M36.9126 29.3816L36.5938 28.905C33.4055 25.4096 28.9419 23.3442 24.1594 23.5031C19.377 23.3442 14.754 25.4096 11.5657 28.905L11.2469 29.3816V41.4565C11.2469 42.8864 12.3628 44.1574 13.9569 44.1574H34.362C35.7967 44.1574 37.072 42.8864 37.072 41.4565V29.3816H36.9126ZM33.7243 40.9798H14.4351V30.4938C16.9858 27.9517 20.4929 26.6807 24.1594 26.6807C27.6666 26.5218 31.1737 27.9517 33.7243 30.4938V40.9798Z" fill="#00A0C1"/>
  </symbol>

<symbol id="telegram">
<path d="M70.3484 2.16199C69.9592 1.75903 69.4674 1.48003 68.9308 1.35781C68.3943 1.23558 67.8354 1.27521 67.3198 1.47202L3.8615 25.4708C3.31422 25.6867 2.84305 26.0706 2.51056 26.5716C2.17807 27.0726 2 27.6669 2 28.2756C2 28.8844 2.17807 29.4787 2.51056 29.9797C2.84305 30.4807 3.31422 30.8646 3.8615 31.0805L31.5524 42.5999L42.6287 71.3984C42.8368 71.9426 43.1935 72.4115 43.6549 72.7473C44.1162 73.0832 44.6619 73.2712 45.2248 73.2883C45.8077 73.2759 46.3733 73.08 46.847 72.7266C47.3207 72.3732 47.6804 71.8787 47.8785 71.3084L70.9542 5.31183C71.1507 4.78108 71.1981 4.20317 71.0909 3.64548C70.9836 3.08779 70.7261 2.5733 70.3484 2.16199ZM45.2248 61.8889L37.1771 40.89L50.9937 26.5207L46.9266 22.291L32.9946 36.7802L12.9187 28.2906L63.4834 9.30162L45.2248 61.8889Z" fill="#00A0C1"/>
</symbol>
<symbol id="location">
<path d="M29.5 42C37.4968 42 44 35.721 44 28C44 20.279 37.4968 14 29.5 14C21.5032 14 15 20.279 15 28C15 35.721 21.5032 42 29.5 42ZM29.5 21C33.4984 21 36.75 24.1395 36.75 28C36.75 31.8605 33.4984 35 29.5 35C25.5016 35 22.25 31.8605 22.25 28C22.25 24.1395 25.5016 21 29.5 21Z" fill="#00A0C1"/>
<path d="M27.4338 70.3403C28.0367 70.7693 28.7591 71 29.5 71C30.2409 71 30.9633 70.7693 31.5662 70.3403C32.6492 69.577 58.103 51.2624 57.9997 28.4002C57.9997 12.7411 45.214 0 29.5 0C13.786 0 1.00031 12.7411 1.00031 28.3825C0.897002 51.2624 26.3508 69.577 27.4338 70.3403ZM29.5 7.10006C41.2882 7.10006 50.8748 16.6532 50.8748 28.418C50.9496 44.173 35.2427 58.3199 29.5 62.9598C23.7609 58.3163 8.05042 44.1659 8.12524 28.4002C8.12524 16.6532 17.7118 7.10006 29.5 7.10006Z" fill="#00A0C1"/>
</symbol>
<symbol id="phone">
<path d="M56.9295 38.9947C56.578 38.6426 56.1605 38.3632 55.7009 38.1726C55.2413 37.982 54.7487 37.8839 54.2511 37.8839C53.7536 37.8839 53.2609 37.982 52.8013 38.1726C52.3417 38.3632 51.9242 38.6426 51.5727 38.9947L45.534 45.0334C42.7344 44.1999 37.5102 42.3057 34.1992 38.9947C30.8881 35.6836 28.9939 30.4594 28.1605 27.6598L34.1992 21.6211C34.5513 21.2696 34.8306 20.8521 35.0212 20.3925C35.2118 19.9329 35.3099 19.4403 35.3099 18.9427C35.3099 18.4452 35.2118 17.9525 35.0212 17.4929C34.8306 17.0333 34.5513 16.6159 34.1992 16.2643L19.0456 1.11076C18.6941 0.758646 18.2766 0.479298 17.817 0.288701C17.3574 0.0981045 16.8647 0 16.3672 0C15.8696 0 15.377 0.0981045 14.9174 0.288701C14.4578 0.479298 14.0403 0.758646 13.6888 1.11076L3.41467 11.3849C1.97508 12.8245 1.16436 14.802 1.19467 16.8212C1.2818 22.2159 2.71003 40.9533 17.4772 55.7204C32.2443 70.4876 50.9817 71.912 56.3802 72.003H56.4863C58.4865 72.003 60.377 71.215 61.809 69.783L72.0831 59.5088C72.4352 59.1573 72.7146 58.7398 72.9052 58.2802C73.0957 57.8207 73.1938 57.328 73.1938 56.8304C73.1938 56.3329 73.0957 55.8402 72.9052 55.3807C72.7146 54.9211 72.4352 54.5036 72.0831 54.1521L56.9295 38.9947ZM56.4484 64.4224C51.7205 64.3428 35.544 63.0737 22.834 50.3599C10.0822 37.6081 8.84722 21.3749 8.77146 16.7417L16.3672 9.14594L26.164 18.9427L21.2656 23.8411C20.8203 24.2861 20.4929 24.835 20.313 25.4382C20.1331 26.0414 20.1063 26.68 20.2351 27.2961C20.3261 27.7318 22.5498 38.0627 28.8386 44.3515C35.1273 50.6402 45.4583 52.864 45.8939 52.9549C46.5097 53.0874 47.1489 53.0627 47.7527 52.8833C48.3565 52.7039 48.9054 52.3755 49.3489 51.9283L54.2511 47.0299L64.0479 56.8267L56.4484 64.4224Z" fill="#00A0C1"/>
</symbol>
</svg>